<mxfile host="app.diagrams.net" modified="2024-07-09T11:02:44.944Z" agent="Mozilla/5.0 (Windows NT 10.0; Win64; x64) AppleWebKit/537.36 (KHTML, like Gecko) Chrome/126.0.0.0 Safari/537.36" etag="abJPy_ppGg4vvUYUnLnw" version="24.6.4" type="device">
  <diagram id="R2lEEEUBdFMjLlhIrx00" name="Page-1">
    <mxGraphModel dx="1730" dy="444" grid="1" gridSize="10" guides="1" tooltips="1" connect="1" arrows="1" fold="1" page="1" pageScale="1" pageWidth="850" pageHeight="1100" math="0" shadow="0" extFonts="Permanent Marker^https://fonts.googleapis.com/css?family=Permanent+Marker">
      <root>
        <mxCell id="0" />
        <mxCell id="1" parent="0" />
        <mxCell id="IYfTwKkSvcScy0yVk7M9-1" value="UNIVERSITY" style="rounded=0;whiteSpace=wrap;html=1;" parent="1" vertex="1">
          <mxGeometry x="410" y="230" width="120" height="60" as="geometry" />
        </mxCell>
        <mxCell id="IYfTwKkSvcScy0yVk7M9-26" style="edgeStyle=orthogonalEdgeStyle;rounded=0;orthogonalLoop=1;jettySize=auto;html=1;exitX=1;exitY=0.5;exitDx=0;exitDy=0;entryX=0;entryY=0.5;entryDx=0;entryDy=0;endArrow=none;endFill=0;" parent="1" source="IYfTwKkSvcScy0yVk7M9-2" target="IYfTwKkSvcScy0yVk7M9-23" edge="1">
          <mxGeometry relative="1" as="geometry" />
        </mxCell>
        <mxCell id="IYfTwKkSvcScy0yVk7M9-2" value="MANAGEMENT" style="rounded=0;whiteSpace=wrap;html=1;" parent="1" vertex="1">
          <mxGeometry x="100" y="190" width="120" height="60" as="geometry" />
        </mxCell>
        <mxCell id="IYfTwKkSvcScy0yVk7M9-28" value="" style="edgeStyle=orthogonalEdgeStyle;rounded=0;orthogonalLoop=1;jettySize=auto;html=1;endArrow=none;endFill=0;shape=link;" parent="1" source="IYfTwKkSvcScy0yVk7M9-3" target="IYfTwKkSvcScy0yVk7M9-22" edge="1">
          <mxGeometry relative="1" as="geometry" />
        </mxCell>
        <mxCell id="IYfTwKkSvcScy0yVk7M9-3" value="FACULTY" style="rounded=0;whiteSpace=wrap;html=1;" parent="1" vertex="1">
          <mxGeometry x="100" y="420" width="120" height="60" as="geometry" />
        </mxCell>
        <mxCell id="IYfTwKkSvcScy0yVk7M9-4" value="STUDENT" style="rounded=0;whiteSpace=wrap;html=1;" parent="1" vertex="1">
          <mxGeometry x="100" y="620" width="120" height="60" as="geometry" />
        </mxCell>
        <mxCell id="IYfTwKkSvcScy0yVk7M9-5" value="LIB CARD" style="rounded=0;whiteSpace=wrap;html=1;" parent="1" vertex="1">
          <mxGeometry x="430" y="610" width="120" height="60" as="geometry" />
        </mxCell>
        <mxCell id="IYfTwKkSvcScy0yVk7M9-46" value="" style="edgeStyle=orthogonalEdgeStyle;rounded=0;orthogonalLoop=1;jettySize=auto;html=1;endArrow=none;endFill=0;" parent="1" source="IYfTwKkSvcScy0yVk7M9-8" target="IYfTwKkSvcScy0yVk7M9-29" edge="1">
          <mxGeometry relative="1" as="geometry" />
        </mxCell>
        <mxCell id="IYfTwKkSvcScy0yVk7M9-8" value="CLASSES" style="rounded=0;whiteSpace=wrap;html=1;" parent="1" vertex="1">
          <mxGeometry x="-10" y="520" width="120" height="60" as="geometry" />
        </mxCell>
        <mxCell id="IYfTwKkSvcScy0yVk7M9-58" value="" style="edgeStyle=orthogonalEdgeStyle;rounded=0;orthogonalLoop=1;jettySize=auto;html=1;endArrow=none;endFill=0;" parent="1" source="IYfTwKkSvcScy0yVk7M9-9" target="IYfTwKkSvcScy0yVk7M9-55" edge="1">
          <mxGeometry relative="1" as="geometry" />
        </mxCell>
        <mxCell id="IYfTwKkSvcScy0yVk7M9-88" style="edgeStyle=orthogonalEdgeStyle;rounded=0;orthogonalLoop=1;jettySize=auto;html=1;exitX=1;exitY=0.5;exitDx=0;exitDy=0;entryX=0;entryY=1;entryDx=0;entryDy=0;endArrow=none;endFill=0;" parent="1" source="IYfTwKkSvcScy0yVk7M9-9" target="IYfTwKkSvcScy0yVk7M9-82" edge="1">
          <mxGeometry relative="1" as="geometry">
            <mxPoint x="640" y="870" as="targetPoint" />
          </mxGeometry>
        </mxCell>
        <mxCell id="IYfTwKkSvcScy0yVk7M9-9" value="SUBJECT" style="rounded=0;whiteSpace=wrap;html=1;" parent="1" vertex="1">
          <mxGeometry x="420" y="850" width="120" height="60" as="geometry" />
        </mxCell>
        <mxCell id="IYfTwKkSvcScy0yVk7M9-50" value="" style="edgeStyle=orthogonalEdgeStyle;rounded=0;orthogonalLoop=1;jettySize=auto;html=1;endArrow=none;endFill=0;" parent="1" source="IYfTwKkSvcScy0yVk7M9-10" target="IYfTwKkSvcScy0yVk7M9-4" edge="1">
          <mxGeometry relative="1" as="geometry" />
        </mxCell>
        <mxCell id="IYfTwKkSvcScy0yVk7M9-10" value="id" style="ellipse;whiteSpace=wrap;html=1;" parent="1" vertex="1">
          <mxGeometry x="-30" y="630" width="80" height="60" as="geometry" />
        </mxCell>
        <mxCell id="IYfTwKkSvcScy0yVk7M9-11" value="adddress" style="ellipse;whiteSpace=wrap;html=1;" parent="1" vertex="1">
          <mxGeometry x="120" y="820" width="80" height="60" as="geometry" />
        </mxCell>
        <mxCell id="IYfTwKkSvcScy0yVk7M9-15" style="edgeStyle=orthogonalEdgeStyle;rounded=0;orthogonalLoop=1;jettySize=auto;html=1;exitX=0.5;exitY=0;exitDx=0;exitDy=0;endArrow=none;endFill=0;" parent="1" source="IYfTwKkSvcScy0yVk7M9-12" edge="1">
          <mxGeometry relative="1" as="geometry">
            <mxPoint x="150" y="680" as="targetPoint" />
            <Array as="points">
              <mxPoint x="60" y="740" />
              <mxPoint x="140" y="740" />
              <mxPoint x="140" y="680" />
            </Array>
          </mxGeometry>
        </mxCell>
        <mxCell id="IYfTwKkSvcScy0yVk7M9-12" value="name" style="ellipse;whiteSpace=wrap;html=1;" parent="1" vertex="1">
          <mxGeometry x="20" y="800" width="80" height="60" as="geometry" />
        </mxCell>
        <mxCell id="IYfTwKkSvcScy0yVk7M9-19" style="edgeStyle=orthogonalEdgeStyle;rounded=0;orthogonalLoop=1;jettySize=auto;html=1;exitX=0;exitY=0;exitDx=0;exitDy=0;entryX=0.915;entryY=1.015;entryDx=0;entryDy=0;entryPerimeter=0;endArrow=none;endFill=0;" parent="1" source="IYfTwKkSvcScy0yVk7M9-13" target="IYfTwKkSvcScy0yVk7M9-4" edge="1">
          <mxGeometry relative="1" as="geometry">
            <mxPoint x="210" y="670" as="targetPoint" />
          </mxGeometry>
        </mxCell>
        <mxCell id="IYfTwKkSvcScy0yVk7M9-13" value="gender" style="ellipse;whiteSpace=wrap;html=1;" parent="1" vertex="1">
          <mxGeometry x="260" y="730" width="80" height="60" as="geometry" />
        </mxCell>
        <mxCell id="IYfTwKkSvcScy0yVk7M9-16" style="edgeStyle=orthogonalEdgeStyle;rounded=0;orthogonalLoop=1;jettySize=auto;html=1;exitX=0.5;exitY=0;exitDx=0;exitDy=0;entryX=0.25;entryY=1;entryDx=0;entryDy=0;endArrow=none;endFill=0;" parent="1" source="IYfTwKkSvcScy0yVk7M9-14" target="IYfTwKkSvcScy0yVk7M9-4" edge="1">
          <mxGeometry relative="1" as="geometry" />
        </mxCell>
        <mxCell id="IYfTwKkSvcScy0yVk7M9-14" value="birth" style="ellipse;whiteSpace=wrap;html=1;" parent="1" vertex="1">
          <mxGeometry x="-40" y="730" width="80" height="60" as="geometry" />
        </mxCell>
        <mxCell id="IYfTwKkSvcScy0yVk7M9-27" value="" style="edgeStyle=orthogonalEdgeStyle;rounded=0;orthogonalLoop=1;jettySize=auto;html=1;endArrow=classic;endFill=1;" parent="1" source="IYfTwKkSvcScy0yVk7M9-22" target="IYfTwKkSvcScy0yVk7M9-2" edge="1">
          <mxGeometry relative="1" as="geometry" />
        </mxCell>
        <mxCell id="IYfTwKkSvcScy0yVk7M9-22" value="manage" style="rhombus;whiteSpace=wrap;html=1;" parent="1" vertex="1">
          <mxGeometry x="120" y="300" width="80" height="80" as="geometry" />
        </mxCell>
        <mxCell id="IYfTwKkSvcScy0yVk7M9-24" value="" style="edgeStyle=orthogonalEdgeStyle;rounded=0;orthogonalLoop=1;jettySize=auto;html=1;" parent="1" source="IYfTwKkSvcScy0yVk7M9-23" target="IYfTwKkSvcScy0yVk7M9-1" edge="1">
          <mxGeometry relative="1" as="geometry" />
        </mxCell>
        <mxCell id="IYfTwKkSvcScy0yVk7M9-23" value="computerize" style="rhombus;whiteSpace=wrap;html=1;" parent="1" vertex="1">
          <mxGeometry x="240" y="180" width="80" height="80" as="geometry" />
        </mxCell>
        <mxCell id="IYfTwKkSvcScy0yVk7M9-31" value="" style="edgeStyle=orthogonalEdgeStyle;rounded=0;orthogonalLoop=1;jettySize=auto;html=1;endArrow=none;endFill=0;" parent="1" source="IYfTwKkSvcScy0yVk7M9-29" target="IYfTwKkSvcScy0yVk7M9-3" edge="1">
          <mxGeometry relative="1" as="geometry" />
        </mxCell>
        <mxCell id="IYfTwKkSvcScy0yVk7M9-29" value="has" style="rhombus;whiteSpace=wrap;html=1;" parent="1" vertex="1">
          <mxGeometry x="-10" y="410" width="80" height="80" as="geometry" />
        </mxCell>
        <mxCell id="IYfTwKkSvcScy0yVk7M9-33" value="" style="edgeStyle=orthogonalEdgeStyle;rounded=0;orthogonalLoop=1;jettySize=auto;html=1;" parent="1" source="IYfTwKkSvcScy0yVk7M9-32" target="IYfTwKkSvcScy0yVk7M9-5" edge="1">
          <mxGeometry relative="1" as="geometry" />
        </mxCell>
        <mxCell id="l95ojtiuk6yKf_gBaMCY-1" style="edgeStyle=orthogonalEdgeStyle;rounded=0;orthogonalLoop=1;jettySize=auto;html=1;exitX=0;exitY=0.5;exitDx=0;exitDy=0;entryX=1;entryY=0.5;entryDx=0;entryDy=0;" edge="1" parent="1" source="IYfTwKkSvcScy0yVk7M9-32" target="IYfTwKkSvcScy0yVk7M9-4">
          <mxGeometry relative="1" as="geometry" />
        </mxCell>
        <mxCell id="IYfTwKkSvcScy0yVk7M9-32" value="own" style="rhombus;whiteSpace=wrap;html=1;" parent="1" vertex="1">
          <mxGeometry x="270" y="600" width="80" height="80" as="geometry" />
        </mxCell>
        <mxCell id="IYfTwKkSvcScy0yVk7M9-41" style="edgeStyle=orthogonalEdgeStyle;rounded=0;orthogonalLoop=1;jettySize=auto;html=1;exitX=0;exitY=0;exitDx=0;exitDy=0;entryX=0.5;entryY=1;entryDx=0;entryDy=0;endArrow=none;endFill=0;" parent="1" source="IYfTwKkSvcScy0yVk7M9-35" target="IYfTwKkSvcScy0yVk7M9-5" edge="1">
          <mxGeometry relative="1" as="geometry" />
        </mxCell>
        <mxCell id="IYfTwKkSvcScy0yVk7M9-35" value="issue date" style="ellipse;whiteSpace=wrap;html=1;" parent="1" vertex="1">
          <mxGeometry x="510" y="770" width="80" height="60" as="geometry" />
        </mxCell>
        <mxCell id="IYfTwKkSvcScy0yVk7M9-36" value="Expiration date" style="ellipse;whiteSpace=wrap;html=1;" parent="1" vertex="1">
          <mxGeometry x="610" y="720" width="80" height="60" as="geometry" />
        </mxCell>
        <mxCell id="IYfTwKkSvcScy0yVk7M9-38" style="edgeStyle=orthogonalEdgeStyle;rounded=0;orthogonalLoop=1;jettySize=auto;html=1;exitX=0.5;exitY=0;exitDx=0;exitDy=0;entryX=0.25;entryY=1;entryDx=0;entryDy=0;endArrow=none;endFill=0;" parent="1" source="IYfTwKkSvcScy0yVk7M9-37" target="IYfTwKkSvcScy0yVk7M9-5" edge="1">
          <mxGeometry relative="1" as="geometry" />
        </mxCell>
        <mxCell id="IYfTwKkSvcScy0yVk7M9-37" value="card number&amp;nbsp;" style="ellipse;whiteSpace=wrap;html=1;" parent="1" vertex="1">
          <mxGeometry x="410" y="760" width="80" height="60" as="geometry" />
        </mxCell>
        <mxCell id="IYfTwKkSvcScy0yVk7M9-42" style="edgeStyle=orthogonalEdgeStyle;rounded=0;orthogonalLoop=1;jettySize=auto;html=1;exitX=0;exitY=0;exitDx=0;exitDy=0;entryX=0.818;entryY=1.032;entryDx=0;entryDy=0;entryPerimeter=0;endArrow=none;endFill=0;" parent="1" source="IYfTwKkSvcScy0yVk7M9-36" target="IYfTwKkSvcScy0yVk7M9-5" edge="1">
          <mxGeometry relative="1" as="geometry" />
        </mxCell>
        <mxCell id="IYfTwKkSvcScy0yVk7M9-48" value="" style="edgeStyle=orthogonalEdgeStyle;rounded=0;orthogonalLoop=1;jettySize=auto;html=1;endArrow=none;endFill=0;" parent="1" source="IYfTwKkSvcScy0yVk7M9-47" target="IYfTwKkSvcScy0yVk7M9-8" edge="1">
          <mxGeometry relative="1" as="geometry" />
        </mxCell>
        <mxCell id="IYfTwKkSvcScy0yVk7M9-49" value="" style="edgeStyle=orthogonalEdgeStyle;rounded=0;orthogonalLoop=1;jettySize=auto;html=1;endArrow=none;endFill=0;" parent="1" source="IYfTwKkSvcScy0yVk7M9-47" target="IYfTwKkSvcScy0yVk7M9-4" edge="1">
          <mxGeometry relative="1" as="geometry" />
        </mxCell>
        <mxCell id="IYfTwKkSvcScy0yVk7M9-47" value="has" style="rhombus;whiteSpace=wrap;html=1;" parent="1" vertex="1">
          <mxGeometry x="140" y="510" width="80" height="80" as="geometry" />
        </mxCell>
        <mxCell id="IYfTwKkSvcScy0yVk7M9-53" style="edgeStyle=orthogonalEdgeStyle;rounded=0;orthogonalLoop=1;jettySize=auto;html=1;exitX=0.5;exitY=0;exitDx=0;exitDy=0;endArrow=none;endFill=0;" parent="1" source="IYfTwKkSvcScy0yVk7M9-11" target="IYfTwKkSvcScy0yVk7M9-4" edge="1">
          <mxGeometry relative="1" as="geometry">
            <mxPoint x="172" y="684" as="targetPoint" />
            <Array as="points">
              <mxPoint x="170" y="820" />
            </Array>
          </mxGeometry>
        </mxCell>
        <mxCell id="IYfTwKkSvcScy0yVk7M9-57" style="edgeStyle=orthogonalEdgeStyle;rounded=0;orthogonalLoop=1;jettySize=auto;html=1;exitX=0;exitY=0;exitDx=0;exitDy=0;entryX=0.75;entryY=1;entryDx=0;entryDy=0;endArrow=none;endFill=0;" parent="1" source="IYfTwKkSvcScy0yVk7M9-55" target="IYfTwKkSvcScy0yVk7M9-4" edge="1">
          <mxGeometry relative="1" as="geometry">
            <Array as="points">
              <mxPoint x="260" y="810" />
              <mxPoint x="190" y="810" />
            </Array>
          </mxGeometry>
        </mxCell>
        <mxCell id="IYfTwKkSvcScy0yVk7M9-55" value="study" style="rhombus;whiteSpace=wrap;html=1;" parent="1" vertex="1">
          <mxGeometry x="240" y="840" width="80" height="80" as="geometry" />
        </mxCell>
        <mxCell id="IYfTwKkSvcScy0yVk7M9-81" value="code" style="ellipse;whiteSpace=wrap;html=1;" parent="1" vertex="1">
          <mxGeometry x="630" y="790" width="60" height="50" as="geometry" />
        </mxCell>
        <mxCell id="IYfTwKkSvcScy0yVk7M9-82" value="name" style="ellipse;whiteSpace=wrap;html=1;" parent="1" vertex="1">
          <mxGeometry x="680" y="825" width="60" height="50" as="geometry" />
        </mxCell>
        <mxCell id="IYfTwKkSvcScy0yVk7M9-87" style="edgeStyle=orthogonalEdgeStyle;rounded=0;orthogonalLoop=1;jettySize=auto;html=1;exitX=0;exitY=0.5;exitDx=0;exitDy=0;endArrow=none;endFill=0;" parent="1" source="IYfTwKkSvcScy0yVk7M9-83" edge="1">
          <mxGeometry relative="1" as="geometry">
            <mxPoint x="540" y="904" as="targetPoint" />
          </mxGeometry>
        </mxCell>
        <mxCell id="IYfTwKkSvcScy0yVk7M9-83" value="credit" style="ellipse;whiteSpace=wrap;html=1;" parent="1" vertex="1">
          <mxGeometry x="710" y="885" width="60" height="50" as="geometry" />
        </mxCell>
        <mxCell id="IYfTwKkSvcScy0yVk7M9-86" style="edgeStyle=orthogonalEdgeStyle;rounded=0;orthogonalLoop=1;jettySize=auto;html=1;exitX=1;exitY=0.25;exitDx=0;exitDy=0;entryX=0.005;entryY=0.671;entryDx=0;entryDy=0;entryPerimeter=0;endArrow=none;endFill=0;" parent="1" source="IYfTwKkSvcScy0yVk7M9-9" target="IYfTwKkSvcScy0yVk7M9-81" edge="1">
          <mxGeometry relative="1" as="geometry" />
        </mxCell>
        <mxCell id="l95ojtiuk6yKf_gBaMCY-3" value="graduation point" style="ellipse;whiteSpace=wrap;html=1;" vertex="1" parent="1">
          <mxGeometry x="-20" y="910" width="120" height="80" as="geometry" />
        </mxCell>
        <mxCell id="l95ojtiuk6yKf_gBaMCY-4" style="edgeStyle=orthogonalEdgeStyle;rounded=0;orthogonalLoop=1;jettySize=auto;html=1;exitX=0.5;exitY=0;exitDx=0;exitDy=0;entryX=0.425;entryY=0.967;entryDx=0;entryDy=0;entryPerimeter=0;endArrow=none;endFill=0;" edge="1" parent="1" source="l95ojtiuk6yKf_gBaMCY-3" target="IYfTwKkSvcScy0yVk7M9-4">
          <mxGeometry relative="1" as="geometry">
            <Array as="points">
              <mxPoint x="110" y="910" />
              <mxPoint x="110" y="795" />
              <mxPoint x="151" y="795" />
            </Array>
          </mxGeometry>
        </mxCell>
        <mxCell id="l95ojtiuk6yKf_gBaMCY-6" value="" style="edgeStyle=orthogonalEdgeStyle;rounded=0;orthogonalLoop=1;jettySize=auto;html=1;endArrow=none;endFill=0;" edge="1" parent="1" source="l95ojtiuk6yKf_gBaMCY-5" target="IYfTwKkSvcScy0yVk7M9-9">
          <mxGeometry relative="1" as="geometry" />
        </mxCell>
        <mxCell id="l95ojtiuk6yKf_gBaMCY-5" value="subject score" style="ellipse;whiteSpace=wrap;html=1;" vertex="1" parent="1">
          <mxGeometry x="430" y="970" width="115" height="70" as="geometry" />
        </mxCell>
      </root>
    </mxGraphModel>
  </diagram>
</mxfile>
